<svg width="100" height="36" viewBox="0 0 100 36" fill="none" xmlns="http://www.w3.org/2000/svg">
<path fill-rule="evenodd" clip-rule="evenodd" d="M28.4999 6C30.9852 6 32.9999 8.01472 32.9999 10.5V25.5C32.9999 27.9853 30.9852 30 28.4999 30H7.49994C5.01465 30 2.99994 27.9853 2.99994 25.5V10.5C2.99994 8.01472 5.01465 6 7.49994 6H28.4999ZM29.9999 14.4372H19.5C18.6717 14.4372 17.7663 13.8076 17.478 13.031L15.9813 9H7.49994C6.6715 9 5.99994 9.67158 5.99994 10.5V25.5C5.99994 26.3284 6.6715 27 7.49994 27H28.4999C29.3283 27 29.9999 26.3284 29.9999 25.5V14.4372Z" fill="white"/>
<path d="M40.6761 14.9119V13.8182H48.3125V14.9119H45.1108V24H43.8778V14.9119H40.6761ZM51.2644 24.179C50.7805 24.179 50.3413 24.0878 49.9469 23.9055C49.5525 23.7199 49.2393 23.4531 49.0073 23.1051C48.7753 22.7538 48.6593 22.3295 48.6593 21.8324C48.6593 21.3949 48.7454 21.0402 48.9178 20.7685C49.0901 20.4934 49.3205 20.2779 49.6088 20.1222C49.8972 19.9664 50.2154 19.8504 50.5634 19.7741C50.9147 19.6946 51.2677 19.6316 51.6223 19.5852C52.0864 19.5256 52.4625 19.4808 52.7509 19.451C53.0426 19.4179 53.2547 19.3632 53.3873 19.2869C53.5231 19.2107 53.5911 19.0781 53.5911 18.8892V18.8494C53.5911 18.3589 53.4569 17.9777 53.1884 17.706C52.9232 17.4342 52.5205 17.2983 51.9803 17.2983C51.4202 17.2983 50.981 17.4209 50.6628 17.6662C50.3446 17.9115 50.1209 18.1733 49.9917 18.4517L48.878 18.054C49.0769 17.59 49.342 17.2287 49.6735 16.9702C50.0082 16.7083 50.3728 16.526 50.7672 16.4233C51.165 16.3172 51.556 16.2642 51.9405 16.2642C52.1858 16.2642 52.4675 16.294 52.7857 16.3537C53.1072 16.41 53.4171 16.5277 53.7154 16.7067C54.017 16.8857 54.2672 17.1558 54.4661 17.517C54.665 17.8783 54.7644 18.3622 54.7644 18.9688V24H53.5911V22.9659H53.5314C53.4519 23.1316 53.3193 23.3089 53.1337 23.4979C52.9481 23.6868 52.7012 23.8475 52.3929 23.9801C52.0847 24.1127 51.7085 24.179 51.2644 24.179ZM51.4434 23.125C51.9074 23.125 52.2985 23.0339 52.6167 22.8516C52.9382 22.6693 53.1801 22.4339 53.3425 22.1456C53.5082 21.8572 53.5911 21.554 53.5911 21.2358V20.1619C53.5414 20.2216 53.432 20.2763 53.263 20.326C53.0972 20.3724 52.905 20.4138 52.6863 20.4503C52.4708 20.4834 52.2604 20.5133 52.0549 20.5398C51.8527 20.563 51.6886 20.5829 51.5627 20.5994C51.2578 20.6392 50.9727 20.7038 50.7076 20.7933C50.4457 20.8795 50.2336 21.0104 50.0712 21.1861C49.9121 21.3584 49.8326 21.5937 49.8326 21.892C49.8326 22.2997 49.9834 22.608 50.285 22.8168C50.5899 23.0223 50.976 23.125 51.4434 23.125ZM57.065 24V13.8182H58.2383V17.5767H58.3377C58.4239 17.4441 58.5432 17.2751 58.6957 17.0696C58.8514 16.8608 59.0735 16.6752 59.3619 16.5128C59.6535 16.3471 60.0479 16.2642 60.5451 16.2642C61.1881 16.2642 61.7549 16.425 62.2454 16.7464C62.7359 17.0679 63.1187 17.5237 63.3938 18.1136C63.6689 18.7036 63.8065 19.3996 63.8065 20.2017C63.8065 21.0104 63.6689 21.7114 63.3938 22.3047C63.1187 22.8946 62.7376 23.352 62.2504 23.6768C61.7631 23.9983 61.2013 24.1591 60.565 24.1591C60.0745 24.1591 59.6817 24.0779 59.3867 23.9155C59.0917 23.7498 58.8647 23.5625 58.7056 23.3537C58.5465 23.1416 58.4239 22.9659 58.3377 22.8267H58.1985V24H57.065ZM58.2184 20.1818C58.2184 20.7585 58.3029 21.2673 58.4719 21.7081C58.641 22.1456 58.8879 22.4886 59.2127 22.7372C59.5375 22.9825 59.9353 23.1051 60.4059 23.1051C60.8964 23.1051 61.3058 22.9759 61.6339 22.7173C61.9653 22.4555 62.2139 22.1042 62.3796 21.6634C62.5487 21.2192 62.6332 20.7254 62.6332 20.1818C62.6332 19.6449 62.5503 19.161 62.3846 18.7301C62.2222 18.2959 61.9753 17.9529 61.6438 17.701C61.3157 17.4458 60.9031 17.3182 60.4059 17.3182C59.9286 17.3182 59.5276 17.4392 59.2028 17.6811C58.878 17.9197 58.6327 18.2545 58.467 18.6854C58.3013 19.1129 58.2184 19.6117 58.2184 20.1818ZM66.7745 19.4062V24H65.6012V16.3636H66.7347V17.5568H66.8342C67.0131 17.169 67.2849 16.8575 67.6495 16.6222C68.0141 16.3835 68.4847 16.2642 69.0614 16.2642C69.5785 16.2642 70.0309 16.3703 70.4187 16.5824C70.8065 16.7912 71.1081 17.1094 71.3235 17.5369C71.5389 17.9612 71.6467 18.4981 71.6467 19.1477V24H70.4734V19.2273C70.4734 18.6274 70.3176 18.16 70.006 17.8253C69.6945 17.4872 69.2669 17.3182 68.7234 17.3182C68.3488 17.3182 68.0141 17.3994 67.7191 17.5618C67.4274 17.7242 67.1971 17.9612 67.0281 18.2727C66.859 18.5843 66.7745 18.9621 66.7745 19.4062ZM76.9924 24.1591C76.2566 24.1591 75.6219 23.9967 75.0882 23.6719C74.5579 23.3438 74.1486 22.8864 73.8603 22.2997C73.5752 21.7098 73.4327 21.0237 73.4327 20.2415C73.4327 19.4593 73.5752 18.7699 73.8603 18.1733C74.1486 17.5734 74.5497 17.1061 75.0634 16.7713C75.5804 16.4332 76.1837 16.2642 76.873 16.2642C77.2708 16.2642 77.6635 16.3305 78.0513 16.4631C78.4391 16.5956 78.7921 16.8111 79.1103 17.1094C79.4284 17.4044 79.682 17.7955 79.8709 18.2827C80.0598 18.7699 80.1543 19.3698 80.1543 20.0824V20.5795H74.2679V19.5653H78.9611C78.9611 19.1345 78.8749 18.75 78.7026 18.4119C78.5336 18.0739 78.2916 17.8071 77.9767 17.6115C77.6652 17.416 77.2973 17.3182 76.873 17.3182C76.4057 17.3182 76.0014 17.4342 75.66 17.6662C75.3219 17.8949 75.0617 18.1932 74.8794 18.5611C74.6971 18.929 74.606 19.3234 74.606 19.7443V20.4205C74.606 20.9972 74.7054 21.486 74.9043 21.8871C75.1065 22.2848 75.3865 22.5881 75.7445 22.7969C76.1025 23.0024 76.5184 23.1051 76.9924 23.1051C77.3006 23.1051 77.579 23.062 77.8276 22.9759C78.0795 22.8864 78.2966 22.7538 78.4789 22.5781C78.6612 22.3991 78.802 22.1771 78.9015 21.9119L80.035 22.2301C79.9157 22.6146 79.7151 22.9527 79.4334 23.2443C79.1517 23.5327 78.8037 23.758 78.3894 23.9205C77.9751 24.0795 77.5094 24.1591 76.9924 24.1591ZM83.6692 24L81.3425 16.3636H82.5755L84.226 22.2102H84.3056L85.9363 16.3636H87.1891L88.7999 22.1903H88.8794L90.53 16.3636H91.763L89.4363 24H88.2828L86.6124 18.1335H86.4931L84.8226 24H83.6692ZM98.7232 18.0739L97.6692 18.3722C97.6029 18.1965 97.5051 18.0258 97.3759 17.8601C97.2499 17.6911 97.0776 17.5518 96.8588 17.4425C96.6401 17.3331 96.36 17.2784 96.0186 17.2784C95.5513 17.2784 95.1619 17.3861 94.8503 17.6016C94.5421 17.8137 94.388 18.0838 94.388 18.4119C94.388 18.7036 94.494 18.9339 94.7061 19.103C94.9183 19.272 95.2497 19.4129 95.7005 19.5256L96.834 19.804C97.5167 19.9697 98.0255 20.2232 98.3603 20.5646C98.695 20.9027 98.8624 21.3385 98.8624 21.8722C98.8624 22.3097 98.7364 22.7008 98.4846 23.0455C98.236 23.3902 97.888 23.6619 97.4405 23.8608C96.9931 24.0597 96.4727 24.1591 95.8794 24.1591C95.1006 24.1591 94.4559 23.9901 93.9455 23.652C93.4351 23.3139 93.1119 22.8201 92.976 22.1705L94.0897 21.892C94.1957 22.303 94.3962 22.6113 94.6912 22.8168C94.9895 23.0223 95.379 23.125 95.8596 23.125C96.4064 23.125 96.8406 23.009 97.1621 22.777C97.4869 22.5417 97.6493 22.2599 97.6493 21.9318C97.6493 21.6667 97.5565 21.4446 97.3709 21.2656C97.1853 21.0833 96.9003 20.9474 96.5158 20.858L95.2431 20.5597C94.5437 20.3939 94.03 20.1371 93.7019 19.7891C93.3771 19.4377 93.2147 18.9986 93.2147 18.4716C93.2147 18.0407 93.3356 17.6596 93.5776 17.3281C93.8229 16.9967 94.156 16.7365 94.5769 16.5476C95.0011 16.3587 95.4817 16.2642 96.0186 16.2642C96.7743 16.2642 97.3676 16.4299 97.7985 16.7614C98.2327 17.0928 98.5409 17.5303 98.7232 18.0739Z" fill="white"/>
</svg>
