<svg width="20" height="20" viewBox="0 0 20 20" fill="none" xmlns="http://www.w3.org/2000/svg">
<path d="M19.5306 18.4694L14.8366 13.7762C16.1971 12.1428 16.8755 10.0478 16.7307 7.92694C16.5859 5.80607 15.629 3.82268 14.0591 2.38935C12.4892 0.95602 10.4272 0.183113 8.30191 0.231413C6.17666 0.279713 4.15184 1.1455 2.64867 2.64867C1.1455 4.15184 0.279713 6.17666 0.231413 8.30191C0.183113 10.4272 0.95602 12.4892 2.38935 14.0591C3.82268 15.629 5.80607 16.5859 7.92694 16.7307C10.0478 16.8755 12.1428 16.1971 13.7762 14.8366L18.4694 19.5306C18.5391 19.6003 18.6218 19.6556 18.7128 19.6933C18.8039 19.731 18.9015 19.7504 19 19.7504C19.0985 19.7504 19.1961 19.731 19.2872 19.6933C19.3782 19.6556 19.4609 19.6003 19.5306 19.5306C19.6003 19.4609 19.6556 19.3782 19.6933 19.2872C19.731 19.1961 19.7504 19.0985 19.7504 19C19.7504 18.9015 19.731 18.8039 19.6933 18.7128C19.6556 18.6218 19.6003 18.5391 19.5306 18.4694ZM1.75 8.5C1.75 7.16498 2.14588 5.85993 2.88758 4.7499C3.62928 3.63987 4.68349 2.7747 5.91689 2.26381C7.15029 1.75292 8.50749 1.61925 9.81686 1.8797C11.1262 2.14015 12.329 2.78302 13.273 3.72703C14.217 4.67103 14.8599 5.87377 15.1203 7.18314C15.3808 8.49251 15.2471 9.84971 14.7362 11.0831C14.2253 12.3165 13.3601 13.3707 12.2501 14.1124C11.1401 14.8541 9.83502 15.25 8.5 15.25C6.7104 15.248 4.99466 14.5362 3.72922 13.2708C2.46378 12.0053 1.75199 10.2896 1.75 8.5Z" fill="#686C71"/>
</svg>
